<svg width="65" height="22" viewBox="0 0 65 22" fill="none" xmlns="http://www.w3.org/2000/svg">
<g clip-path="url(#clip0_24_889)">
<path d="M13.1187 7.32979C10.7574 7.32979 8.91239 8.95412 8.91239 11.1286C8.91239 13.3031 10.7108 14.9135 13.1187 14.9135C15.5266 14.9135 17.3563 13.2753 17.3563 11.1147C17.3563 8.96802 15.5579 7.32979 13.1187 7.32979ZM13.1346 13.3464C11.79 13.3464 10.8046 12.4001 10.8046 11.1291C10.8046 9.8438 11.774 8.89798 13.1187 8.89798C14.4793 8.89798 15.4641 9.85824 15.4641 11.1291C15.4641 12.4001 14.4793 13.3464 13.1346 13.3464ZM17.872 8.98245H19.045V14.7729H20.9213V7.47095H17.872V8.98245ZM4.19039 8.89744C5.17574 8.89744 5.95753 9.44815 6.25431 10.2673H8.24035C7.88043 8.51622 6.28558 7.32979 4.20632 7.32979C1.84502 7.32979 0 8.95412 0 11.1291C0 13.3042 1.79841 14.9141 4.20632 14.9141C6.23897 14.9141 7.86509 13.7276 8.22501 11.9622H6.25431C5.97287 12.7813 5.19108 13.3464 4.20573 13.3464C2.84512 13.3464 1.89163 12.4001 1.89163 11.1291C1.89222 9.8438 2.83037 8.89744 4.19039 8.89744ZM53.5227 10.4229L52.1468 10.2395C51.4901 10.155 51.021 9.95715 51.021 9.49092C51.021 8.98245 51.6311 8.72849 52.4595 8.72849C53.3664 8.72849 53.9452 9.08137 54.0703 9.66041H55.884C55.6805 8.19168 54.4296 7.33033 52.5067 7.33033C50.5207 7.33033 49.2073 8.24835 49.2073 9.5476C49.2073 10.7902 50.0675 11.5109 51.8028 11.7365L53.1788 11.9199C53.8514 12.0044 54.2267 12.245 54.2267 12.6968C54.2267 13.2758 53.57 13.5159 52.6631 13.5159C51.5526 13.5159 50.9272 13.1064 50.8334 12.4851H48.9884C49.1607 13.9116 50.3956 14.9141 52.6471 14.9141C54.6957 14.9141 56.0557 14.0666 56.0557 12.6118C56.0557 11.3125 55.071 10.6346 53.5227 10.4229ZM19.9831 4.4629C19.2951 4.4629 18.7789 4.9147 18.7789 5.53598C18.7789 6.15727 19.2945 6.60906 19.9831 6.60906C20.6711 6.60906 21.1874 6.15727 21.1874 5.53598C21.1874 4.9147 20.6711 4.4629 19.9831 4.4629ZM47.5186 9.97106C47.5186 8.38951 46.4554 7.33033 44.2038 7.33033C42.0774 7.33033 40.889 8.30503 40.6542 9.8021H42.5152C42.609 9.22305 43.1093 8.74292 44.1726 8.74292C45.1266 8.74292 45.5957 9.12414 45.5957 9.59037C45.5957 10.1978 44.7354 10.3528 43.6722 10.4517C42.2337 10.5929 40.4512 11.0447 40.4512 12.7396C40.4512 14.0532 41.5304 14.9002 43.2503 14.9002C44.595 14.9002 45.4393 14.3917 45.8618 13.5865C45.9243 14.3067 46.5185 14.7729 47.3475 14.7729H48.442V13.2619H47.5192V9.97106H47.5186ZM45.6736 11.8071C45.6736 12.7818 44.7354 13.502 43.5937 13.502C42.8898 13.502 42.2957 13.2336 42.2957 12.669C42.2957 11.9488 43.2497 11.751 44.1253 11.6665C44.9697 11.5959 45.4388 11.4264 45.6736 11.1013V11.8071ZM35.7133 7.32979C34.6654 7.32979 33.7898 7.72545 33.1644 8.38897V4.39233H31.2881V14.7729H33.1331V13.8126C33.7585 14.5045 34.6501 14.9141 35.7133 14.9141C37.9649 14.9141 39.6694 13.3042 39.6694 11.1291C39.6694 8.95412 37.9336 7.32979 35.7133 7.32979ZM35.4319 13.3464C34.0872 13.3464 33.1018 12.4001 33.1018 11.1291C33.1018 9.85824 34.1025 8.89798 35.4472 8.89798C36.8078 8.89798 37.7613 9.84434 37.7613 11.1291C37.7613 12.4001 36.7765 13.3464 35.4319 13.3464ZM26.8003 7.32979C25.5807 7.32979 24.783 7.78159 24.3139 8.41731V7.47095H22.453V14.7724H24.3293V10.8041C24.3293 9.68822 25.1111 8.89744 26.2681 8.89744C27.3473 8.89744 28.0193 9.5893 28.0193 10.5923V14.7729H29.8956V10.4656C29.8962 8.62904 28.8489 7.32979 26.8003 7.32979ZM65 10.8891C65 8.79906 63.3113 7.33033 61.0438 7.33033C58.6359 7.33033 56.8688 8.96855 56.8688 11.1291C56.8688 13.4031 58.761 14.9141 61.0751 14.9141C63.0299 14.9141 64.5622 13.8688 64.9528 12.3862H62.998C62.7166 13.0358 62.0286 13.4031 61.1058 13.4031C59.9016 13.4031 58.9947 12.7251 58.7917 11.5387H64.9994V10.8891H65ZM58.9015 10.3239C59.1988 9.307 60.0432 8.81296 61.0126 8.81296C62.0758 8.81296 62.8889 9.36367 63.0765 10.3239H58.9015Z" fill="url(#paint0_linear_24_889)"/>
</g>
<defs>
<linearGradient id="paint0_linear_24_889" x1="65" y1="13.3668" x2="2.06919" y2="-2.75586" gradientUnits="userSpaceOnUse">
<stop stop-color="#CA753D"/>
<stop offset="1" stop-color="#CE9341"/>
</linearGradient>
<clipPath id="clip0_24_889">
<rect width="65" height="22" fill="white"/>
</clipPath>
</defs>
</svg>
