<svg width="94" height="20" viewBox="0 0 94 20" fill="none" xmlns="http://www.w3.org/2000/svg">
<g clip-path="url(#clip0_24_886)">
<path d="M11.3076 15.6897C11.4642 14.7837 11.1353 13.8469 10.4305 13.2326C9.92936 12.7719 9.25591 12.5108 8.56681 12.5108C8.15961 12.5108 7.76808 12.4187 7.40786 12.2344C6.93802 11.9887 6.56215 11.6048 6.31156 11.1441C6.45252 10.7909 6.51516 10.4069 6.51516 9.99232C6.51516 11.1134 7.42352 12.0194 8.55115 12.0194H8.59813C9.7101 12.0041 10.6028 11.098 10.6028 9.99232C10.6028 9.59304 10.6811 9.20912 10.8064 8.84056C11.0257 8.27236 11.4015 7.76558 11.9027 7.39702C12.5135 6.93631 13.2652 6.72132 14.017 6.75203C13.4845 5.86133 12.7328 5.10885 11.8244 4.57136C11.8244 4.61743 11.8244 4.67886 11.8244 4.72493C11.8244 5.43135 11.5895 6.10704 11.1666 6.67525C11.0413 6.56775 10.9004 6.47561 10.7594 6.39883C11.1353 5.92276 11.3232 5.3392 11.3232 4.74029C11.3232 4.38708 11.2606 4.03387 11.1196 3.69602C10.7124 2.71319 9.75708 2.02213 8.62946 1.99142H8.55115H8.47284C7.78374 1.99142 7.1103 2.08356 6.45252 2.26784C3.68044 3.00497 1.5035 5.17028 0.767411 7.91915C0.297567 8.48735 0.0156614 9.17841 0 9.91554C0.0469843 5.29313 3.80573 1.54607 8.47284 1.5H8.56681C8.6138 1.5 8.64512 1.5 8.6921 1.5C13.3279 1.57678 17.071 5.29313 17.118 9.91554C17.118 9.94625 17.118 9.97696 17.118 10.0077C17.118 10.0384 17.118 10.0691 17.118 10.0998C17.1023 10.837 16.8361 11.528 16.3505 12.0962C15.912 12.6183 15.3012 13.0023 14.6278 13.1558C14.3772 13.2173 14.111 13.248 13.8604 13.248C13.1556 13.248 12.4665 13.0176 11.9027 12.603C11.6991 12.8794 11.4485 13.1098 11.1823 13.3248C11.6365 13.9237 11.8714 14.6762 11.8244 15.4286C12.7328 14.8911 13.4845 14.1387 14.017 13.248C14.2206 13.2326 14.4242 13.2019 14.6278 13.1558C13.9857 14.3844 12.9677 15.3826 11.7304 16.0275C10.7594 16.5343 9.66311 16.7954 8.56681 16.7954C8.08131 16.7954 7.62712 16.565 7.34522 16.1965C7.14162 15.9201 7.03199 15.5976 7.03199 15.2597C7.03199 14.799 7.25125 14.369 7.58014 14.0926C7.89337 14.1694 8.23792 14.2154 8.58247 14.2154C8.003 14.2154 7.51749 14.6915 7.51749 15.2751C7.51749 15.8586 7.98734 16.3347 8.58247 16.3347H8.59813C9.17761 16.3347 9.66311 15.8586 9.66311 15.2751C9.66311 14.6915 9.19327 14.2154 8.59813 14.2154C7.81506 14.2154 7.06331 14.0005 6.38987 13.6012C6.24892 13.509 6.10796 13.4169 5.98267 13.3248C5.70077 13.1098 5.46584 12.864 5.24658 12.603C5.37188 12.5108 5.49717 12.4033 5.62246 12.2805C5.92003 12.6644 6.2959 13.0023 6.73442 13.248C7.29823 13.5705 7.94035 13.7394 8.59813 13.7394C8.97401 13.7394 9.33422 13.8776 9.60047 14.1079C9.92936 14.3844 10.1486 14.8144 10.1486 15.2751C10.1486 15.6129 10.039 15.9354 9.83539 16.2118C10.3522 16.1043 10.8534 15.9508 11.3232 15.7204L11.3076 15.6897ZM14.8001 8.77913C14.7061 8.257 14.5338 7.76558 14.2989 7.28952C13.5472 7.16666 12.7797 7.3663 12.1846 7.81165C11.4955 8.33378 11.0883 9.1477 11.0883 10.0077C11.0883 10.4223 10.9943 10.8062 10.8064 11.1594C10.5715 11.6201 10.1799 12.0041 9.72576 12.2498C10.1486 12.4033 10.5245 12.649 10.8534 12.9562C11.2449 12.6644 11.5738 12.2805 11.8087 11.8659C12.1376 11.2977 12.3099 10.668 12.3099 10.0077C12.3099 9.62376 12.4508 9.28591 12.6858 9.00949C12.9833 8.67164 13.4062 8.472 13.8604 8.472C14.2049 8.472 14.5338 8.57949 14.8001 8.77913ZM14.9097 9.96161C14.894 9.40876 14.4242 8.96342 13.8447 8.94806C13.2496 8.94806 12.7797 9.42412 12.7797 9.99232C12.7797 10.0077 12.7797 10.023 12.7797 10.023C12.7954 10.5912 13.2652 11.0366 13.8447 11.0366C14.4399 11.0366 14.9097 10.5605 14.9097 9.99232C14.9097 9.99232 14.9097 9.97696 14.9097 9.96161ZM12.6858 11.0059C12.5761 11.4205 12.4195 11.8351 12.1846 12.2037C12.7797 12.6644 13.5472 12.8487 14.2989 12.7258C14.5025 12.6951 14.7061 12.6337 14.9097 12.5569C15.9277 12.1423 16.6011 11.1748 16.6325 10.0845V9.94625C16.6325 9.27055 16.5385 8.59485 16.3505 7.93451C15.6145 5.20099 13.4375 3.03568 10.6811 2.28319C11.2136 2.72854 11.5738 3.32746 11.7461 3.9878V4.00316C13.1869 4.75564 14.2989 5.98419 14.9097 7.4738C15.2386 8.257 15.4109 9.11698 15.4109 10.023C15.4109 10.5145 15.1759 10.9598 14.8001 11.2362C14.5338 11.4359 14.2049 11.5587 13.8604 11.5587C13.3905 11.5434 12.9677 11.3284 12.6858 11.0059ZM8.44152 18.5C3.80573 18.4232 0.0626458 14.6915 0.0156615 10.0845V9.99232V9.90018C0.0313229 9.16305 0.297567 8.47199 0.783072 7.90379C1.22159 7.38166 1.83239 7.0131 2.50583 6.84417C2.75641 6.78274 3.02266 6.75203 3.27324 6.75203C3.97801 6.75203 4.66711 6.98238 5.23092 7.39702C5.43452 7.1206 5.6851 6.89024 5.95135 6.67525C5.49717 6.07633 5.26225 5.32385 5.29357 4.57136C4.38521 5.10885 3.63346 5.86133 3.10097 6.75203C2.89737 6.76739 2.69377 6.7981 2.49017 6.84417C3.13229 5.61563 4.15028 4.61743 5.38754 3.97244C6.35855 3.46567 7.45485 3.2046 8.55115 3.2046C9.03665 3.2046 9.49084 3.43496 9.77274 3.80352C9.97634 4.06459 10.086 4.38708 10.086 4.74029C10.086 5.21635 9.86671 5.63098 9.53782 5.90741C9.20893 5.83062 8.88004 5.78455 8.53549 5.78455C9.11496 5.78455 9.60047 5.30849 9.60047 4.72493C9.60047 4.14137 9.13062 3.66531 8.53549 3.66531H8.51983C7.94035 3.66531 7.45485 4.14137 7.45485 4.72493C7.45485 5.30849 7.92469 5.78455 8.51983 5.78455C9.3029 5.78455 10.0546 5.99955 10.7281 6.39883C10.869 6.49097 11.01 6.58311 11.1353 6.67525C11.4015 6.89024 11.6521 7.13595 11.8714 7.39702C11.7461 7.48916 11.6208 7.59666 11.4955 7.71951C11.1979 7.33559 10.8221 6.99774 10.3835 6.75203C9.81973 6.42954 9.17761 6.26061 8.51983 6.26061C8.15961 6.26061 7.7994 6.1224 7.51749 5.89205C7.17294 5.60027 6.96934 5.17028 6.96934 4.72493C6.96934 4.37173 7.09463 4.04923 7.28257 3.78817C6.76574 3.89566 6.24892 4.06459 5.77907 4.27958C5.62246 5.18563 5.95135 6.1224 6.65611 6.73667C7.15728 7.19738 7.83072 7.45845 8.51983 7.45845C8.92702 7.45845 9.31856 7.55058 9.67877 7.73487C10.1486 7.98058 10.5245 8.3645 10.7751 8.8252C10.6341 9.19377 10.5558 9.57769 10.5715 9.97696C10.5715 8.85592 9.66311 7.94987 8.53549 7.94987H8.51983C7.40786 7.96522 6.51516 8.87127 6.51516 9.97696C6.51516 10.3762 6.43685 10.7602 6.31156 11.1287C6.0923 11.6969 5.71643 12.2037 5.21526 12.5723C4.60447 13.033 3.85272 13.248 3.10097 13.2173C3.63346 14.1079 4.38521 14.8604 5.29357 15.3979C5.26225 14.6454 5.48151 13.9083 5.93569 13.3094C6.06098 13.4169 6.20193 13.509 6.34289 13.5858C5.96701 14.0619 5.77907 14.6454 5.77907 15.2444C5.77907 15.5976 5.84172 15.9508 5.98267 16.2886C6.38987 17.2715 7.34522 17.9625 8.47284 17.9932H8.6138C9.3029 17.9932 9.97634 17.9011 10.6341 17.7168C13.4062 16.9797 15.5831 14.8144 16.3192 12.0655C16.7891 11.4973 17.071 10.8062 17.0866 10.0691C17.0397 14.6915 13.2809 18.4386 8.6138 18.4846H8.51983H8.42586C8.47284 18.5 8.44152 18.5 8.44152 18.5ZM6.45252 17.7322C5.92003 17.2868 5.55981 16.6879 5.38754 16.0275C5.38754 16.0275 5.38754 16.0276 5.38754 16.0122C3.94668 15.2597 2.83472 14.0312 2.22393 12.5416C1.89503 11.7276 1.72276 10.8677 1.72276 9.99232C1.72276 9.5009 1.95768 9.05556 2.33356 8.77913C2.5998 8.57949 2.91303 8.45664 3.27324 8.45664C3.74309 8.45664 4.16594 8.67163 4.44785 8.99413C4.55748 8.56414 4.7141 8.16486 4.94902 7.7963C4.35388 7.33559 3.58647 7.15131 2.83472 7.27416C2.61546 7.30487 2.42752 7.3663 2.22393 7.44309C1.20593 7.85772 0.532489 8.8252 0.501166 9.91554C0.501166 9.94625 0.501166 9.96161 0.501166 9.99232V10.0691C0.501166 10.7448 0.595135 11.4205 0.783072 12.0808C1.53482 14.8297 3.6961 16.995 6.45252 17.7322ZM2.83472 12.7258C3.58647 12.8487 4.35388 12.649 4.94902 12.2037C5.63812 11.6816 6.04532 10.8677 6.04532 10.0077C6.04532 9.59304 6.13929 9.20912 6.32722 8.85592C6.56215 8.39521 6.95368 8.01129 7.40786 7.76558H7.3922C6.96934 7.61201 6.59347 7.3663 6.26458 7.05917C5.87304 7.35095 5.54415 7.73487 5.30923 8.1495C4.98034 8.7177 4.80806 9.34734 4.80806 10.0077C4.80806 10.3916 4.66711 10.7295 4.43219 11.0059C4.13462 11.3437 3.71176 11.5434 3.25758 11.5434C2.89737 11.5434 2.58414 11.4205 2.31789 11.2209C2.44319 11.743 2.61546 12.2498 2.83472 12.7258ZM2.22393 10.0538C2.25525 10.6066 2.70943 11.0673 3.2889 11.0673C3.88404 11.0673 4.35388 10.5912 4.35388 10.023C4.35388 10.0077 4.35388 9.99232 4.35388 9.99232C4.33822 9.42412 3.86838 8.97877 3.2889 8.97877C2.69377 8.97877 2.22393 9.45483 2.22393 10.0384C2.22393 10.023 2.22393 10.0384 2.22393 10.0538ZM23.9933 5.5542H26.3426L28.5352 11.4205H28.5665L30.7278 5.5542H33.077V13.8162H31.5891V7.18202H31.5735L29.0207 13.8162H27.9713L25.4498 7.18202H25.4342V13.8162H24.009L23.9933 5.5542ZM37.1803 5.5542H42.7557V6.84417H38.6838V8.94806H42.5521V10.1766H38.6681V12.5108H42.9593V13.8162H37.1646L37.1803 5.5542ZM49.3962 9.11698C49.6155 9.11698 49.8191 9.10162 50.0383 9.07091C50.2419 9.0402 50.4299 8.97877 50.6178 8.90199C50.7901 8.80984 50.931 8.68699 51.0406 8.53342C51.1503 8.37985 51.2129 8.16486 51.2129 7.91915C51.2129 7.6888 51.1659 7.50451 51.0563 7.3663C50.9467 7.22809 50.8214 7.10524 50.6648 7.02846C50.4925 6.93632 50.3202 6.87489 50.1166 6.85953C49.9287 6.82882 49.7251 6.81346 49.5215 6.81346H48.1589V9.13234C48.1746 9.11698 49.3962 9.11698 49.3962 9.11698ZM46.6711 5.5542H49.5998C49.9913 5.5542 50.3829 5.60027 50.7587 5.67705C51.119 5.75384 51.4478 5.89205 51.7454 6.07633C52.0273 6.26061 52.2779 6.52168 52.4345 6.81346C52.6068 7.12059 52.7008 7.48916 52.7008 7.91915C52.7008 8.51807 52.5285 9.00948 52.1839 9.37805C51.8394 9.76197 51.3695 10.0077 50.7744 10.1459L53.014 13.8008H51.2129L49.2709 10.2995H48.1746V13.8008H46.6711V5.5542ZM62.4735 7.48916C62.2542 7.19738 61.9567 6.96703 61.6121 6.84417C61.2832 6.70596 60.923 6.64454 60.5628 6.64454C60.1556 6.64454 59.7484 6.72132 59.3725 6.87489C59.028 7.02846 58.7148 7.24345 58.4485 7.51987C58.1823 7.79629 57.9787 8.11879 57.8534 8.472C57.7124 8.85592 57.6341 9.25519 57.6498 9.65447C57.6498 10.0998 57.7124 10.5145 57.8534 10.883C57.9943 11.2516 58.1823 11.5741 58.4329 11.8505C58.6834 12.1116 58.981 12.3266 59.3256 12.4801C59.6701 12.6337 60.0616 12.6951 60.5002 12.6951C60.9543 12.6951 61.3459 12.603 61.7061 12.4341C62.035 12.2651 62.3326 12.0348 62.5518 11.743L63.7577 12.5723C63.3975 13.033 62.9277 13.3862 62.3952 13.6319C61.8627 13.8776 61.2206 14.0158 60.5002 14.0158C59.8424 14.0158 59.2316 13.9083 58.6834 13.6933C58.1509 13.4937 57.6654 13.1865 57.2582 12.8026C56.851 12.4033 56.5378 11.9426 56.3342 11.4205C56.115 10.883 56.0053 10.2995 56.0053 9.65447C56.0053 8.99413 56.115 8.39521 56.3499 7.85772C56.5848 7.32023 56.898 6.87488 57.3052 6.50632C57.7281 6.1224 58.2136 5.83062 58.7461 5.64634C59.5918 5.33921 60.5158 5.26242 61.3929 5.41599C61.6904 5.46206 61.9723 5.53884 62.2386 5.64634C62.5048 5.75384 62.7554 5.87669 63.006 6.03026C63.2409 6.18383 63.4445 6.36811 63.6168 6.5831C63.6168 6.61382 62.4735 7.48916 62.4735 7.48916ZM73.6245 10.7755C73.6245 11.2669 73.5305 11.7276 73.3582 12.1269C73.2016 12.5108 72.951 12.864 72.6378 13.1405C72.3246 13.4169 71.9643 13.6472 71.5728 13.7855C71.1499 13.939 70.6801 14.0158 70.2259 14.0158C69.7717 14.0158 69.3176 13.939 68.879 13.7855C68.4875 13.6472 68.1116 13.4169 67.7984 13.1405C67.4852 12.8487 67.2502 12.5108 67.078 12.1269C66.9057 11.7276 66.8274 11.2823 66.8274 10.7755V5.5542H68.3309V10.7141C68.3309 10.9598 68.3622 11.1902 68.4249 11.4359C68.4875 11.6662 68.5971 11.8812 68.7381 12.0655C68.879 12.2498 69.0826 12.4033 69.3176 12.5262C69.5525 12.6491 69.8657 12.6951 70.2103 12.6951C70.5705 12.6951 70.868 12.6337 71.103 12.5262C71.3379 12.4187 71.5258 12.2651 71.6824 12.0655C71.8234 11.8812 71.933 11.6662 71.9957 11.4359C72.0583 11.2055 72.0896 10.9598 72.0896 10.7141V5.5542H73.5931C73.6245 5.5542 73.6245 10.7755 73.6245 10.7755ZM80.3745 9.11698C80.5938 9.11698 80.7974 9.10162 81.0167 9.07091C81.2359 9.0402 81.4239 8.97877 81.5961 8.90199C81.7684 8.80984 81.9094 8.68699 82.019 8.53342C82.1286 8.37985 82.1913 8.16486 82.1913 7.91915C82.1913 7.6888 82.1443 7.50451 82.0347 7.3663C81.9407 7.22809 81.7997 7.10524 81.6431 7.02846C81.4708 6.93632 81.2986 6.87489 81.095 6.85953C80.907 6.82882 80.7034 6.81346 80.4998 6.81346H79.1373V9.13234C79.1529 9.11698 80.3745 9.11698 80.3745 9.11698ZM77.6495 5.5542H80.5781C80.9697 5.5542 81.3612 5.60027 81.7371 5.67705C82.0973 5.75384 82.4262 5.89205 82.7238 6.07633C83.0057 6.26061 83.2406 6.50632 83.4129 6.81346C83.5851 7.12059 83.6791 7.48916 83.6791 7.91915C83.6791 8.51807 83.5068 9.00948 83.1623 9.37805C82.8177 9.76197 82.3479 10.0077 81.7527 10.1459L83.9923 13.8008H82.1913L80.2493 10.2995H79.1529V13.8008H77.6495C77.6495 13.8162 77.6495 5.5542 77.6495 5.5542ZM89.3329 10.238L86.1693 5.56956H88.0017L90.116 9.0402L92.2616 5.56956H94L90.8364 10.238V13.8162H89.3329V10.238Z" fill="url(#paint0_linear_24_886)"/>
</g>
<defs>
<linearGradient id="paint0_linear_24_886" x1="94" y1="16" x2="1.86381" y2="-5.12786" gradientUnits="userSpaceOnUse">
<stop stop-color="#CA753D"/>
<stop offset="1" stop-color="#CE9341"/>
</linearGradient>
<clipPath id="clip0_24_886">
<rect width="94" height="18" fill="white" transform="translate(0 1)"/>
</clipPath>
</defs>
</svg>
